<mxfile host="65bd71144e">
    <diagram id="VFOV7KLMDSILNZqsXJgx" name="Page-1">
        <mxGraphModel dx="1947" dy="1758" grid="0" gridSize="10" guides="1" tooltips="1" connect="1" arrows="1" fold="1" page="0" pageScale="1" pageWidth="1100" pageHeight="850" background="#ffffff" math="0" shadow="0">
            <root>
                <mxCell id="0"/>
                <mxCell id="1" parent="0"/>
                <mxCell id="440" value="" style="rounded=0;whiteSpace=wrap;html=1;dashed=1;strokeColor=#000000;fillColor=#FFFFFF;" parent="1" vertex="1">
                    <mxGeometry x="-332" y="688" width="775" height="290" as="geometry"/>
                </mxCell>
                <mxCell id="15" value="Menu" style="swimlane;fontStyle=1;align=center;verticalAlign=top;childLayout=stackLayout;horizontal=1;startSize=26;horizontalStack=0;resizeParent=1;resizeParentMax=0;resizeLast=0;collapsible=1;marginBottom=0;strokeColor=#000000;fillColor=#FFFFFF;fontColor=#000000;" parent="1" vertex="1">
                    <mxGeometry x="501" y="258" width="175" height="112" as="geometry"/>
                </mxCell>
                <mxCell id="16" value="+ menuItem(): ArrayList&lt;Item&gt;" style="text;strokeColor=none;fillColor=none;align=left;verticalAlign=top;spacingLeft=4;spacingRight=4;overflow=hidden;rotatable=0;points=[[0,0.5],[1,0.5]];portConstraint=eastwest;fontColor=#000000;" parent="15" vertex="1">
                    <mxGeometry y="26" width="175" height="26" as="geometry"/>
                </mxCell>
                <mxCell id="19" value="" style="line;strokeWidth=1;fillColor=none;align=left;verticalAlign=middle;spacingTop=-1;spacingLeft=3;spacingRight=3;rotatable=0;labelPosition=right;points=[];portConstraint=eastwest;strokeColor=inherit;" parent="15" vertex="1">
                    <mxGeometry y="52" width="175" height="8" as="geometry"/>
                </mxCell>
                <mxCell id="20" value="+ addItem(item: Item)" style="text;strokeColor=none;fillColor=none;align=left;verticalAlign=top;spacingLeft=4;spacingRight=4;overflow=hidden;rotatable=0;points=[[0,0.5],[1,0.5]];portConstraint=eastwest;fontColor=#000000;" parent="15" vertex="1">
                    <mxGeometry y="60" width="175" height="26" as="geometry"/>
                </mxCell>
                <mxCell id="21" value="+ removeItem(item:Item)&#10;" style="text;strokeColor=none;fillColor=none;align=left;verticalAlign=top;spacingLeft=4;spacingRight=4;overflow=hidden;rotatable=0;points=[[0,0.5],[1,0.5]];portConstraint=eastwest;fontColor=#000000;" parent="15" vertex="1">
                    <mxGeometry y="86" width="175" height="26" as="geometry"/>
                </mxCell>
                <mxCell id="71" value="Cart&#10;" style="swimlane;fontStyle=1;align=center;verticalAlign=top;childLayout=stackLayout;horizontal=1;startSize=26;horizontalStack=0;resizeParent=1;resizeParentMax=0;resizeLast=0;collapsible=1;marginBottom=0;strokeColor=#000000;fillColor=#FFFFFF;fontColor=#000000;" parent="1" vertex="1">
                    <mxGeometry x="865" y="499" width="160" height="164" as="geometry"/>
                </mxCell>
                <mxCell id="72" value="+ id: int" style="text;strokeColor=none;fillColor=none;align=left;verticalAlign=top;spacingLeft=4;spacingRight=4;overflow=hidden;rotatable=0;points=[[0,0.5],[1,0.5]];portConstraint=eastwest;fontColor=#000000;" parent="71" vertex="1">
                    <mxGeometry y="26" width="160" height="26" as="geometry"/>
                </mxCell>
                <mxCell id="74" value="+ items:menuItems" style="text;strokeColor=none;fillColor=none;align=left;verticalAlign=top;spacingLeft=4;spacingRight=4;overflow=hidden;rotatable=0;points=[[0,0.5],[1,0.5]];portConstraint=eastwest;fontColor=#000000;" parent="71" vertex="1">
                    <mxGeometry y="52" width="160" height="26" as="geometry"/>
                </mxCell>
                <mxCell id="75" value="" style="line;strokeWidth=1;fillColor=none;align=left;verticalAlign=middle;spacingTop=-1;spacingLeft=3;spacingRight=3;rotatable=0;labelPosition=right;points=[];portConstraint=eastwest;strokeColor=inherit;" parent="71" vertex="1">
                    <mxGeometry y="78" width="160" height="8" as="geometry"/>
                </mxCell>
                <mxCell id="79" value="+ addItem(item: Item)" style="text;strokeColor=none;fillColor=none;align=left;verticalAlign=top;spacingLeft=4;spacingRight=4;overflow=hidden;rotatable=0;points=[[0,0.5],[1,0.5]];portConstraint=eastwest;fontColor=#000000;" parent="71" vertex="1">
                    <mxGeometry y="86" width="160" height="26" as="geometry"/>
                </mxCell>
                <mxCell id="80" value="+ removeItem(item:Item)&#10;" style="text;strokeColor=none;fillColor=none;align=left;verticalAlign=top;spacingLeft=4;spacingRight=4;overflow=hidden;rotatable=0;points=[[0,0.5],[1,0.5]];portConstraint=eastwest;fontColor=#000000;" parent="71" vertex="1">
                    <mxGeometry y="112" width="160" height="26" as="geometry"/>
                </mxCell>
                <mxCell id="76" value="+ placeOrder()" style="text;strokeColor=none;fillColor=none;align=left;verticalAlign=top;spacingLeft=4;spacingRight=4;overflow=hidden;rotatable=0;points=[[0,0.5],[1,0.5]];portConstraint=eastwest;fontColor=#000000;" parent="71" vertex="1">
                    <mxGeometry y="138" width="160" height="26" as="geometry"/>
                </mxCell>
                <mxCell id="81" value="User" style="swimlane;fontStyle=1;align=center;verticalAlign=top;childLayout=stackLayout;horizontal=1;startSize=26;horizontalStack=0;resizeParent=1;resizeParentMax=0;resizeLast=0;collapsible=1;marginBottom=0;strokeColor=#000000;fillColor=#FFFFFF;fontColor=#000000;" parent="1" vertex="1">
                    <mxGeometry x="560" y="555" width="192" height="138" as="geometry"/>
                </mxCell>
                <mxCell id="82" value="+ name: string" style="text;strokeColor=none;fillColor=none;align=left;verticalAlign=top;spacingLeft=4;spacingRight=4;overflow=hidden;rotatable=0;points=[[0,0.5],[1,0.5]];portConstraint=eastwest;fontColor=#000000;" parent="81" vertex="1">
                    <mxGeometry y="26" width="192" height="26" as="geometry"/>
                </mxCell>
                <mxCell id="83" value="+ email: String" style="text;strokeColor=none;fillColor=none;align=left;verticalAlign=top;spacingLeft=4;spacingRight=4;overflow=hidden;rotatable=0;points=[[0,0.5],[1,0.5]];portConstraint=eastwest;fontColor=#000000;" parent="81" vertex="1">
                    <mxGeometry y="52" width="192" height="26" as="geometry"/>
                </mxCell>
                <mxCell id="86" value="" style="line;strokeWidth=1;fillColor=none;align=left;verticalAlign=middle;spacingTop=-1;spacingLeft=3;spacingRight=3;rotatable=0;labelPosition=right;points=[];portConstraint=eastwest;strokeColor=inherit;" parent="81" vertex="1">
                    <mxGeometry y="78" width="192" height="8" as="geometry"/>
                </mxCell>
                <mxCell id="89" value="+ placeOrder()&#10;&#10;+ addToCart()" style="text;strokeColor=none;fillColor=none;align=left;verticalAlign=top;spacingLeft=4;spacingRight=4;overflow=hidden;rotatable=0;points=[[0,0.5],[1,0.5]];portConstraint=eastwest;fontColor=#000000;" parent="81" vertex="1">
                    <mxGeometry y="86" width="192" height="52" as="geometry"/>
                </mxCell>
                <mxCell id="125" value="" style="group" parent="1" vertex="1" connectable="0">
                    <mxGeometry x="743" y="611" width="126" height="52" as="geometry"/>
                </mxCell>
                <mxCell id="126" value="" style="endArrow=none;html=1;rounded=0;labelBackgroundColor=#000000;labelBorderColor=#000000;strokeWidth=2;fontSize=28;fontColor=#000000;strokeColor=#000000;exitX=0.993;exitY=-0.055;exitDx=0;exitDy=0;exitPerimeter=0;" parent="125" source="89" edge="1">
                    <mxGeometry width="50" height="50" relative="1" as="geometry">
                        <mxPoint x="18.848999999999705" y="25.517000000000053" as="sourcePoint"/>
                        <mxPoint x="120" y="25" as="targetPoint"/>
                    </mxGeometry>
                </mxCell>
                <mxCell id="144" value="Admin" style="swimlane;fontStyle=1;align=center;verticalAlign=top;childLayout=stackLayout;horizontal=1;startSize=26;horizontalStack=0;resizeParent=1;resizeParentMax=0;resizeLast=0;collapsible=1;marginBottom=0;strokeColor=#000000;fillColor=#FFFFFF;fontColor=#000000;" parent="1" vertex="1">
                    <mxGeometry x="64" y="255" width="160" height="130" as="geometry"/>
                </mxCell>
                <mxCell id="145" value="+ name: string" style="text;strokeColor=none;fillColor=none;align=left;verticalAlign=top;spacingLeft=4;spacingRight=4;overflow=hidden;rotatable=0;points=[[0,0.5],[1,0.5]];portConstraint=eastwest;fontColor=#000000;" parent="144" vertex="1">
                    <mxGeometry y="26" width="160" height="26" as="geometry"/>
                </mxCell>
                <mxCell id="146" value="+ id: string" style="text;strokeColor=none;fillColor=none;align=left;verticalAlign=top;spacingLeft=4;spacingRight=4;overflow=hidden;rotatable=0;points=[[0,0.5],[1,0.5]];portConstraint=eastwest;fontColor=#000000;" parent="144" vertex="1">
                    <mxGeometry y="52" width="160" height="26" as="geometry"/>
                </mxCell>
                <mxCell id="147" value="+ role: string" style="text;strokeColor=none;fillColor=none;align=left;verticalAlign=top;spacingLeft=4;spacingRight=4;overflow=hidden;rotatable=0;points=[[0,0.5],[1,0.5]];portConstraint=eastwest;fontColor=#000000;" parent="144" vertex="1">
                    <mxGeometry y="78" width="160" height="26" as="geometry"/>
                </mxCell>
                <mxCell id="151" value="+ salary: float" style="text;strokeColor=none;fillColor=none;align=left;verticalAlign=top;spacingLeft=4;spacingRight=4;overflow=hidden;rotatable=0;points=[[0,0.5],[1,0.5]];portConstraint=eastwest;fontColor=#000000;" parent="144" vertex="1">
                    <mxGeometry y="104" width="160" height="26" as="geometry"/>
                </mxCell>
                <mxCell id="186" value="" style="endArrow=none;html=1;strokeColor=#000000;strokeWidth=2;entryX=0.004;entryY=0.266;entryDx=0;entryDy=0;entryPerimeter=0;exitX=1;exitY=0.5;exitDx=0;exitDy=0;" parent="1" source="146" target="20" edge="1">
                    <mxGeometry width="50" height="50" relative="1" as="geometry">
                        <mxPoint x="13.759999999999991" y="329.308" as="sourcePoint"/>
                        <mxPoint x="228.2800000000002" y="328.69399999999996" as="targetPoint"/>
                        <Array as="points"/>
                    </mxGeometry>
                </mxCell>
                <mxCell id="215" value="" style="endArrow=none;html=1;strokeColor=#000000;strokeWidth=2;entryX=0.158;entryY=0.011;entryDx=0;entryDy=0;entryPerimeter=0;exitX=0.505;exitY=1.074;exitDx=0;exitDy=0;exitPerimeter=0;" parent="1" source="21" target="81" edge="1">
                    <mxGeometry width="50" height="50" relative="1" as="geometry">
                        <mxPoint x="424" y="640" as="sourcePoint"/>
                        <mxPoint x="569.4240000000004" y="640.012" as="targetPoint"/>
                    </mxGeometry>
                </mxCell>
                <mxCell id="217" value="&lt;font color=&quot;#000000&quot;&gt;1&lt;/font&gt;" style="text;html=1;strokeColor=none;fillColor=none;align=center;verticalAlign=middle;whiteSpace=wrap;rounded=0;" parent="1" vertex="1">
                    <mxGeometry x="540" y="640" width="20" height="21" as="geometry"/>
                </mxCell>
                <mxCell id="447" style="edgeStyle=none;html=1;strokeColor=#000000;" parent="1" source="220" target="440" edge="1">
                    <mxGeometry relative="1" as="geometry"/>
                </mxCell>
                <mxCell id="220" value="Payment" style="swimlane;fontStyle=1;align=center;verticalAlign=top;childLayout=stackLayout;horizontal=1;startSize=26;horizontalStack=0;resizeParent=1;resizeParentMax=0;resizeLast=0;collapsible=1;marginBottom=0;strokeColor=#000000;fillColor=#FFFFFF;fontColor=#000000;" parent="1" vertex="1">
                    <mxGeometry x="570" y="790" width="192" height="112" as="geometry"/>
                </mxCell>
                <mxCell id="221" value="+ type: String" style="text;strokeColor=none;fillColor=none;align=left;verticalAlign=top;spacingLeft=4;spacingRight=4;overflow=hidden;rotatable=0;points=[[0,0.5],[1,0.5]];portConstraint=eastwest;fontColor=#000000;" parent="220" vertex="1">
                    <mxGeometry y="26" width="192" height="26" as="geometry"/>
                </mxCell>
                <mxCell id="222" value="+ amount: Float" style="text;strokeColor=none;fillColor=none;align=left;verticalAlign=top;spacingLeft=4;spacingRight=4;overflow=hidden;rotatable=0;points=[[0,0.5],[1,0.5]];portConstraint=eastwest;fontColor=#000000;" parent="220" vertex="1">
                    <mxGeometry y="52" width="192" height="26" as="geometry"/>
                </mxCell>
                <mxCell id="223" value="" style="line;strokeWidth=1;fillColor=none;align=left;verticalAlign=middle;spacingTop=-1;spacingLeft=3;spacingRight=3;rotatable=0;labelPosition=right;points=[];portConstraint=eastwest;strokeColor=inherit;" parent="220" vertex="1">
                    <mxGeometry y="78" width="192" height="8" as="geometry"/>
                </mxCell>
                <mxCell id="225" value="+ verifyPayment()" style="text;strokeColor=none;fillColor=none;align=left;verticalAlign=top;spacingLeft=4;spacingRight=4;overflow=hidden;rotatable=0;points=[[0,0.5],[1,0.5]];portConstraint=eastwest;fontColor=#000000;" parent="220" vertex="1">
                    <mxGeometry y="86" width="192" height="26" as="geometry"/>
                </mxCell>
                <mxCell id="226" value="" style="endArrow=none;html=1;strokeColor=#000000;strokeWidth=2;entryX=0.469;entryY=-0.002;entryDx=0;entryDy=0;entryPerimeter=0;" parent="1" target="220" edge="1">
                    <mxGeometry width="50" height="50" relative="1" as="geometry">
                        <mxPoint x="660" y="692" as="sourcePoint"/>
                        <mxPoint x="658.3199999999997" y="789.2" as="targetPoint"/>
                    </mxGeometry>
                </mxCell>
                <mxCell id="310" value="" style="group" parent="1" vertex="1" connectable="0">
                    <mxGeometry x="-70" y="-333" width="852" height="373" as="geometry"/>
                </mxCell>
                <mxCell id="309" value="" style="rounded=0;whiteSpace=wrap;html=1;dashed=1;strokeColor=#000000;fillColor=#FFFFFF;" parent="310" vertex="1">
                    <mxGeometry y="-35" width="852" height="408" as="geometry"/>
                </mxCell>
                <mxCell id="283" value="Catagory" style="swimlane;fontStyle=1;align=center;verticalAlign=top;childLayout=stackLayout;horizontal=1;startSize=26;horizontalStack=0;resizeParent=1;resizeParentMax=0;resizeLast=0;collapsible=1;marginBottom=0;labelBackgroundColor=#FFFFFF;strokeColor=#000000;fontColor=#000000;fillColor=#FFFFFF;" parent="310" vertex="1">
                    <mxGeometry x="283" y="44.06318681318681" width="240" height="52.64285714285714" as="geometry"/>
                </mxCell>
                <mxCell id="284" value="+ AddMenuItem(type: String): MenuItem" style="text;strokeColor=none;fillColor=none;align=left;verticalAlign=top;spacingLeft=4;spacingRight=4;overflow=hidden;rotatable=0;points=[[0,0.5],[1,0.5]];portConstraint=eastwest;labelBackgroundColor=#FFFFFF;fontColor=#000000;" parent="283" vertex="1">
                    <mxGeometry y="26" width="240" height="26.64285714285714" as="geometry"/>
                </mxCell>
                <mxCell id="291" value="Dinner" style="swimlane;fontStyle=1;align=center;verticalAlign=top;childLayout=stackLayout;horizontal=1;startSize=26;horizontalStack=0;resizeParent=1;resizeParentMax=0;resizeLast=0;collapsible=1;marginBottom=0;labelBackgroundColor=#FFFFFF;strokeColor=#000000;fontColor=#000000;fillColor=#FFFFFF;" parent="310" vertex="1">
                    <mxGeometry x="548" y="214.1675824175824" width="240" height="79.28571428571428" as="geometry"/>
                </mxCell>
                <mxCell id="292" value="+ name: String" style="text;strokeColor=none;fillColor=none;align=left;verticalAlign=top;spacingLeft=4;spacingRight=4;overflow=hidden;rotatable=0;points=[[0,0.5],[1,0.5]];portConstraint=eastwest;labelBackgroundColor=#FFFFFF;fontColor=#000000;" parent="291" vertex="1">
                    <mxGeometry y="26" width="240" height="26.64285714285714" as="geometry"/>
                </mxCell>
                <mxCell id="295" value="" style="endArrow=none;html=1;strokeColor=#000000;entryX=1.004;entryY=-0.024;entryDx=0;entryDy=0;entryPerimeter=0;" parent="291" target="296" edge="1">
                    <mxGeometry width="50" height="50" relative="1" as="geometry">
                        <mxPoint x="1" y="51.832417582417605" as="sourcePoint"/>
                        <mxPoint x="191" y="106.57142857142856" as="targetPoint"/>
                    </mxGeometry>
                </mxCell>
                <mxCell id="296" value="+ AddMenuItem(type: String): MenuItem" style="text;strokeColor=none;fillColor=none;align=left;verticalAlign=top;spacingLeft=4;spacingRight=4;overflow=hidden;rotatable=0;points=[[0,0.5],[1,0.5]];portConstraint=eastwest;labelBackgroundColor=#FFFFFF;fontColor=#000000;" parent="291" vertex="1">
                    <mxGeometry y="52.64285714285714" width="240" height="26.64285714285714" as="geometry"/>
                </mxCell>
                <mxCell id="297" value="Breakfast" style="swimlane;fontStyle=1;align=center;verticalAlign=top;childLayout=stackLayout;horizontal=1;startSize=26;horizontalStack=0;resizeParent=1;resizeParentMax=0;resizeLast=0;collapsible=1;marginBottom=0;labelBackgroundColor=#FFFFFF;strokeColor=#000000;fontColor=#000000;fillColor=#FFFFFF;" parent="310" vertex="1">
                    <mxGeometry x="23" y="208.01923076923075" width="240" height="79.28571428571428" as="geometry"/>
                </mxCell>
                <mxCell id="298" value="+ name: String" style="text;strokeColor=none;fillColor=none;align=left;verticalAlign=top;spacingLeft=4;spacingRight=4;overflow=hidden;rotatable=0;points=[[0,0.5],[1,0.5]];portConstraint=eastwest;labelBackgroundColor=#FFFFFF;fontColor=#000000;" parent="297" vertex="1">
                    <mxGeometry y="26" width="240" height="26.64285714285714" as="geometry"/>
                </mxCell>
                <mxCell id="302" value="" style="endArrow=none;html=1;strokeColor=#000000;exitX=-0.001;exitY=0.894;exitDx=0;exitDy=0;exitPerimeter=0;" parent="297" edge="1">
                    <mxGeometry width="50" height="50" relative="1" as="geometry">
                        <mxPoint x="-0.20000000000004547" y="52.616186813186836" as="sourcePoint"/>
                        <mxPoint x="240" y="52.36615384615384" as="targetPoint"/>
                    </mxGeometry>
                </mxCell>
                <mxCell id="301" value="+ AddMenuItem(type: String): MenuItem" style="text;strokeColor=none;fillColor=none;align=left;verticalAlign=top;spacingLeft=4;spacingRight=4;overflow=hidden;rotatable=0;points=[[0,0.5],[1,0.5]];portConstraint=eastwest;labelBackgroundColor=#FFFFFF;fontColor=#000000;" parent="297" vertex="1">
                    <mxGeometry y="52.64285714285714" width="240" height="26.64285714285714" as="geometry"/>
                </mxCell>
                <mxCell id="303" value="" style="endArrow=block;endSize=16;endFill=0;html=1;entryX=0.517;entryY=1.095;entryDx=0;entryDy=0;entryPerimeter=0;strokeColor=#000000;" parent="310" edge="1">
                    <mxGeometry width="160" relative="1" as="geometry">
                        <mxPoint x="406" y="176.8880769230769" as="sourcePoint"/>
                        <mxPoint x="405.72000000000025" y="99.49057692307706" as="targetPoint"/>
                    </mxGeometry>
                </mxCell>
                <mxCell id="304" value="" style="endArrow=none;html=1;strokeColor=#000000;" parent="310" edge="1">
                    <mxGeometry width="50" height="50" relative="1" as="geometry">
                        <mxPoint x="143" y="177.27747252747253" as="sourcePoint"/>
                        <mxPoint x="673" y="177.27747252747253" as="targetPoint"/>
                    </mxGeometry>
                </mxCell>
                <mxCell id="305" value="" style="endArrow=none;html=1;strokeColor=#000000;entryX=0.574;entryY=-0.012;entryDx=0;entryDy=0;entryPerimeter=0;" parent="310" edge="1">
                    <mxGeometry width="50" height="50" relative="1" as="geometry">
                        <mxPoint x="143" y="176.8880769230769" as="sourcePoint"/>
                        <mxPoint x="143.3599999999999" y="206.99040659340656" as="targetPoint"/>
                    </mxGeometry>
                </mxCell>
                <mxCell id="306" value="" style="endArrow=none;html=1;strokeColor=#000000;entryX=0.574;entryY=-0.012;entryDx=0;entryDy=0;entryPerimeter=0;" parent="310" edge="1">
                    <mxGeometry width="50" height="50" relative="1" as="geometry">
                        <mxPoint x="673" y="177.27747252747253" as="sourcePoint"/>
                        <mxPoint x="673.3599999999997" y="209.03985714285722" as="targetPoint"/>
                    </mxGeometry>
                </mxCell>
                <mxCell id="307" value="" style="endArrow=none;html=1;strokeColor=#000000;entryX=0.574;entryY=-0.012;entryDx=0;entryDy=0;entryPerimeter=0;" parent="310" edge="1">
                    <mxGeometry width="50" height="50" relative="1" as="geometry">
                        <mxPoint x="406" y="177.9128021978022" as="sourcePoint"/>
                        <mxPoint x="406.3599999999997" y="208.01513186813182" as="targetPoint"/>
                    </mxGeometry>
                </mxCell>
                <mxCell id="308" value="" style="endArrow=classic;html=1;exitX=1.002;exitY=0.157;exitDx=0;exitDy=0;exitPerimeter=0;strokeColor=#000000;jumpStyle=gap;dashed=1;strokeWidth=1;rounded=0;" parent="310" source="284" edge="1">
                    <mxGeometry width="50" height="50" relative="1" as="geometry">
                        <mxPoint x="553" y="167.03021978021977" as="sourcePoint"/>
                        <mxPoint x="633" y="74.80494505494494" as="targetPoint"/>
                    </mxGeometry>
                </mxCell>
                <mxCell id="285" value="Lunch" style="swimlane;fontStyle=1;align=center;verticalAlign=top;childLayout=stackLayout;horizontal=1;startSize=26;horizontalStack=0;resizeParent=1;resizeParentMax=0;resizeLast=0;collapsible=1;marginBottom=0;labelBackgroundColor=#FFFFFF;strokeColor=#000000;fontColor=#000000;fillColor=#FFFFFF;" parent="310" vertex="1">
                    <mxGeometry x="286" y="214.1675824175824" width="241" height="79.28571428571428" as="geometry"/>
                </mxCell>
                <mxCell id="449" value="+ name: String" style="text;strokeColor=none;fillColor=none;align=left;verticalAlign=top;spacingLeft=4;spacingRight=4;overflow=hidden;rotatable=0;points=[[0,0.5],[1,0.5]];portConstraint=eastwest;labelBackgroundColor=#FFFFFF;fontColor=#000000;" parent="285" vertex="1">
                    <mxGeometry y="26" width="241" height="26.64285714285714" as="geometry"/>
                </mxCell>
                <mxCell id="289" value="" style="endArrow=none;html=1;strokeColor=#000000;entryX=0.995;entryY=0.035;entryDx=0;entryDy=0;entryPerimeter=0;exitX=-0.001;exitY=0.087;exitDx=0;exitDy=0;exitPerimeter=0;" parent="285" source="290" target="290" edge="1">
                    <mxGeometry width="50" height="50" relative="1" as="geometry">
                        <mxPoint x="2" y="73.78021978021977" as="sourcePoint"/>
                        <mxPoint x="240" y="69.68131868131867" as="targetPoint"/>
                    </mxGeometry>
                </mxCell>
                <mxCell id="290" value="+ AddMenuItem(type: String): MenuItem" style="text;strokeColor=none;fillColor=none;align=left;verticalAlign=top;spacingLeft=4;spacingRight=4;overflow=hidden;rotatable=0;points=[[0,0.5],[1,0.5]];portConstraint=eastwest;labelBackgroundColor=#FFFFFF;fontColor=#000000;" parent="285" vertex="1">
                    <mxGeometry y="52.64285714285714" width="241" height="26.64285714285714" as="geometry"/>
                </mxCell>
                <mxCell id="311" value="" style="endArrow=classic;html=1;strokeColor=#000000;exitX=0.546;exitY=0.004;exitDx=0;exitDy=0;exitPerimeter=0;entryX=0.788;entryY=1.006;entryDx=0;entryDy=0;entryPerimeter=0;" parent="1" source="15" target="309" edge="1">
                    <mxGeometry width="50" height="50" relative="1" as="geometry">
                        <mxPoint x="592" y="250" as="sourcePoint"/>
                        <mxPoint x="518" y="50" as="targetPoint"/>
                    </mxGeometry>
                </mxCell>
                <mxCell id="333" value="" style="group" parent="1" vertex="1" connectable="0">
                    <mxGeometry x="1126" y="394" width="1053" height="442" as="geometry"/>
                </mxCell>
                <mxCell id="332" value="" style="rounded=0;whiteSpace=wrap;html=1;dashed=1;strokeColor=#000000;fillColor=#FFFFFF;" parent="333" vertex="1">
                    <mxGeometry width="1053" height="442" as="geometry"/>
                </mxCell>
                <mxCell id="312" value="Command" style="swimlane;fontStyle=1;align=center;verticalAlign=top;childLayout=stackLayout;horizontal=1;startSize=26;horizontalStack=0;resizeParent=1;resizeParentMax=0;resizeLast=0;collapsible=1;marginBottom=0;labelBackgroundColor=#FFFFFF;strokeColor=#000000;fontColor=#000000;fillColor=#FFFFFF;" parent="333" vertex="1">
                    <mxGeometry x="423" y="77" width="190" height="52" as="geometry"/>
                </mxCell>
                <mxCell id="313" value="+ execute(): void" style="text;strokeColor=none;fillColor=none;align=left;verticalAlign=top;spacingLeft=4;spacingRight=4;overflow=hidden;rotatable=0;points=[[0,0.5],[1,0.5]];portConstraint=eastwest;labelBackgroundColor=#FFFFFF;fontColor=#000000;" parent="312" vertex="1">
                    <mxGeometry y="26" width="190" height="26" as="geometry"/>
                </mxCell>
                <mxCell id="314" value="" style="endArrow=none;html=1;strokeColor=#000000;" parent="312" edge="1">
                    <mxGeometry width="50" height="50" relative="1" as="geometry">
                        <mxPoint x="-1" y="53" as="sourcePoint"/>
                        <mxPoint x="189" y="53" as="targetPoint"/>
                    </mxGeometry>
                </mxCell>
                <mxCell id="315" value="Invoker" style="swimlane;fontStyle=1;align=center;verticalAlign=top;childLayout=stackLayout;horizontal=1;startSize=26;horizontalStack=0;resizeParent=1;resizeParentMax=0;resizeLast=0;collapsible=1;marginBottom=0;labelBackgroundColor=#FFFFFF;strokeColor=#000000;fontColor=#000000;fillColor=#FFFFFF;" parent="333" vertex="1">
                    <mxGeometry x="33" y="38" width="320" height="104" as="geometry"/>
                </mxCell>
                <mxCell id="317" value="+ setCommand(command: Command): void" style="text;strokeColor=none;fillColor=none;align=left;verticalAlign=top;spacingLeft=4;spacingRight=4;overflow=hidden;rotatable=0;points=[[0,0.5],[1,0.5]];portConstraint=eastwest;labelBackgroundColor=#FFFFFF;fontColor=#000000;" parent="315" vertex="1">
                    <mxGeometry y="26" width="320" height="26" as="geometry"/>
                </mxCell>
                <mxCell id="318" value="+ placeOrder(orderDetails: String, tableNumber: int): void" style="text;strokeColor=none;fillColor=none;align=left;verticalAlign=top;spacingLeft=4;spacingRight=4;overflow=hidden;rotatable=0;points=[[0,0.5],[1,0.5]];portConstraint=eastwest;labelBackgroundColor=#FFFFFF;fontColor=#000000;" parent="315" vertex="1">
                    <mxGeometry y="52" width="320" height="26" as="geometry"/>
                </mxCell>
                <mxCell id="319" value="" style="endArrow=none;html=1;strokeColor=#000000;" parent="315" edge="1">
                    <mxGeometry width="50" height="50" relative="1" as="geometry">
                        <mxPoint x="-1" y="53" as="sourcePoint"/>
                        <mxPoint x="320" y="50" as="targetPoint"/>
                    </mxGeometry>
                </mxCell>
                <mxCell id="320" value="+ executeOrder(): void" style="text;strokeColor=none;fillColor=none;align=left;verticalAlign=top;spacingLeft=4;spacingRight=4;overflow=hidden;rotatable=0;points=[[0,0.5],[1,0.5]];portConstraint=eastwest;labelBackgroundColor=#FFFFFF;fontColor=#000000;" parent="315" vertex="1">
                    <mxGeometry y="78" width="320" height="26" as="geometry"/>
                </mxCell>
                <mxCell id="321" value="ConcreteCommand" style="swimlane;fontStyle=1;align=center;verticalAlign=top;childLayout=stackLayout;horizontal=1;startSize=26;horizontalStack=0;resizeParent=1;resizeParentMax=0;resizeLast=0;collapsible=1;marginBottom=0;labelBackgroundColor=#FFFFFF;strokeColor=#000000;fontColor=#000000;fillColor=#FFFFFF;" parent="333" vertex="1">
                    <mxGeometry x="423" y="207" width="190" height="206" as="geometry"/>
                </mxCell>
                <mxCell id="441" value="+ id: int" style="text;strokeColor=none;fillColor=none;align=left;verticalAlign=top;spacingLeft=4;spacingRight=4;overflow=hidden;rotatable=0;points=[[0,0.5],[1,0.5]];portConstraint=eastwest;fontColor=#000000;" parent="321" vertex="1">
                    <mxGeometry y="26" width="190" height="26" as="geometry"/>
                </mxCell>
                <mxCell id="444" value="+ status: string" style="text;strokeColor=none;fillColor=none;align=left;verticalAlign=top;spacingLeft=4;spacingRight=4;overflow=hidden;rotatable=0;points=[[0,0.5],[1,0.5]];portConstraint=eastwest;fontColor=#000000;" parent="321" vertex="1">
                    <mxGeometry y="52" width="190" height="26" as="geometry"/>
                </mxCell>
                <mxCell id="443" value="+ items:menuItems" style="text;strokeColor=none;fillColor=none;align=left;verticalAlign=top;spacingLeft=4;spacingRight=4;overflow=hidden;rotatable=0;points=[[0,0.5],[1,0.5]];portConstraint=eastwest;fontColor=#000000;" parent="321" vertex="1">
                    <mxGeometry y="78" width="190" height="26" as="geometry"/>
                </mxCell>
                <mxCell id="323" value="- tableNumber: int" style="text;strokeColor=none;fillColor=none;align=left;verticalAlign=top;spacingLeft=4;spacingRight=4;overflow=hidden;rotatable=0;points=[[0,0.5],[1,0.5]];portConstraint=eastwest;labelBackgroundColor=#FFFFFF;fontColor=#000000;" parent="321" vertex="1">
                    <mxGeometry y="104" width="190" height="28" as="geometry"/>
                </mxCell>
                <mxCell id="442" value="+ customer: customer" style="text;strokeColor=none;fillColor=none;align=left;verticalAlign=top;spacingLeft=4;spacingRight=4;overflow=hidden;rotatable=0;points=[[0,0.5],[1,0.5]];portConstraint=eastwest;fontColor=#000000;" parent="321" vertex="1">
                    <mxGeometry y="132" width="190" height="26" as="geometry"/>
                </mxCell>
                <mxCell id="324" value="- reciever: Reciever" style="text;strokeColor=none;fillColor=none;align=left;verticalAlign=top;spacingLeft=4;spacingRight=4;overflow=hidden;rotatable=0;points=[[0,0.5],[1,0.5]];portConstraint=eastwest;labelBackgroundColor=#FFFFFF;fontColor=#000000;" parent="321" vertex="1">
                    <mxGeometry y="158" width="190" height="22" as="geometry"/>
                </mxCell>
                <mxCell id="325" value="+ execute()" style="text;strokeColor=none;fillColor=none;align=left;verticalAlign=top;spacingLeft=4;spacingRight=4;overflow=hidden;rotatable=0;points=[[0,0.5],[1,0.5]];portConstraint=eastwest;labelBackgroundColor=#FFFFFF;fontColor=#000000;" parent="321" vertex="1">
                    <mxGeometry y="180" width="190" height="26" as="geometry"/>
                </mxCell>
                <mxCell id="326" value="" style="endArrow=none;html=1;strokeColor=#000000;" parent="321" edge="1">
                    <mxGeometry width="50" height="50" relative="1" as="geometry">
                        <mxPoint x="-1" y="160" as="sourcePoint"/>
                        <mxPoint x="189" y="160" as="targetPoint"/>
                    </mxGeometry>
                </mxCell>
                <mxCell id="327" value="Reciever" style="swimlane;fontStyle=1;align=center;verticalAlign=top;childLayout=stackLayout;horizontal=1;startSize=26;horizontalStack=0;resizeParent=1;resizeParentMax=0;resizeLast=0;collapsible=1;marginBottom=0;labelBackgroundColor=#FFFFFF;strokeColor=#000000;fontColor=#000000;fillColor=#FFFFFF;" parent="333" vertex="1">
                    <mxGeometry x="693" y="77" width="330" height="78" as="geometry"/>
                </mxCell>
                <mxCell id="334" value="- orderQueue: List&lt;Command&gt;" style="text;strokeColor=none;fillColor=none;align=left;verticalAlign=top;spacingLeft=4;spacingRight=4;overflow=hidden;rotatable=0;points=[[0,0.5],[1,0.5]];portConstraint=eastwest;labelBackgroundColor=#FFFFFF;fontColor=#000000;" parent="327" vertex="1">
                    <mxGeometry y="26" width="330" height="26" as="geometry"/>
                </mxCell>
                <mxCell id="328" value="+ executeOrder(orderDetails: String, tableNumber: int): void" style="text;strokeColor=none;fillColor=none;align=left;verticalAlign=top;spacingLeft=4;spacingRight=4;overflow=hidden;rotatable=0;points=[[0,0.5],[1,0.5]];portConstraint=eastwest;labelBackgroundColor=#FFFFFF;fontColor=#000000;" parent="327" vertex="1">
                    <mxGeometry y="52" width="330" height="26" as="geometry"/>
                </mxCell>
                <mxCell id="335" value="" style="endArrow=none;html=1;strokeColor=#000000;exitX=-0.002;exitY=0.034;exitDx=0;exitDy=0;exitPerimeter=0;entryX=1.002;entryY=-0.007;entryDx=0;entryDy=0;entryPerimeter=0;" parent="327" source="328" target="328" edge="1">
                    <mxGeometry width="50" height="50" relative="1" as="geometry">
                        <mxPoint x="105" y="96" as="sourcePoint"/>
                        <mxPoint x="155" y="46" as="targetPoint"/>
                    </mxGeometry>
                </mxCell>
                <mxCell id="329" value="" style="endArrow=open;endFill=1;endSize=12;html=1;exitX=1;exitY=0.5;exitDx=0;exitDy=0;entryX=0.013;entryY=-0.01;entryDx=0;entryDy=0;entryPerimeter=0;strokeColor=#000000;" parent="333" source="317" target="313" edge="1">
                    <mxGeometry width="160" relative="1" as="geometry">
                        <mxPoint x="343" y="147" as="sourcePoint"/>
                        <mxPoint x="503" y="147" as="targetPoint"/>
                    </mxGeometry>
                </mxCell>
                <mxCell id="330" value="" style="endArrow=block;endSize=16;endFill=0;html=1;entryX=0.517;entryY=1.095;entryDx=0;entryDy=0;entryPerimeter=0;strokeColor=#000000;" parent="333" edge="1">
                    <mxGeometry width="160" relative="1" as="geometry">
                        <mxPoint x="518" y="205" as="sourcePoint"/>
                        <mxPoint x="517.7200000000003" y="129.47000000000014" as="targetPoint"/>
                    </mxGeometry>
                </mxCell>
                <mxCell id="331" value="" style="endArrow=open;endFill=1;endSize=12;html=1;exitX=1;exitY=0.5;exitDx=0;exitDy=0;strokeColor=#000000;" parent="333" edge="1">
                    <mxGeometry width="160" relative="1" as="geometry">
                        <mxPoint x="613" y="104" as="sourcePoint"/>
                        <mxPoint x="692" y="102" as="targetPoint"/>
                    </mxGeometry>
                </mxCell>
                <mxCell id="337" value="" style="endArrow=classic;html=1;strokeColor=#000000;" parent="1" target="332" edge="1">
                    <mxGeometry width="50" height="50" relative="1" as="geometry">
                        <mxPoint x="1026" y="622" as="sourcePoint"/>
                        <mxPoint x="1443" y="692" as="targetPoint"/>
                    </mxGeometry>
                </mxCell>
                <mxCell id="424" value="DiscountCalculator" style="swimlane;fontStyle=1;align=center;verticalAlign=top;childLayout=stackLayout;horizontal=1;startSize=26;horizontalStack=0;resizeParent=1;resizeParentMax=0;resizeLast=0;collapsible=1;marginBottom=0;labelBackgroundColor=#FFFFFF;strokeColor=#000000;fontColor=#000000;fillColor=#FFFFFF;" parent="1" vertex="1">
                    <mxGeometry x="154" y="717" width="260" height="112" as="geometry"/>
                </mxCell>
                <mxCell id="425" value="- strategy: DiscountStrategy" style="text;strokeColor=none;fillColor=none;align=left;verticalAlign=top;spacingLeft=4;spacingRight=4;overflow=hidden;rotatable=0;points=[[0,0.5],[1,0.5]];portConstraint=eastwest;labelBackgroundColor=#FFFFFF;fontColor=#000000;" parent="424" vertex="1">
                    <mxGeometry y="26" width="260" height="26" as="geometry"/>
                </mxCell>
                <mxCell id="426" value="" style="line;strokeWidth=1;fillColor=none;align=left;verticalAlign=middle;spacingTop=-1;spacingLeft=3;spacingRight=3;rotatable=0;labelPosition=right;points=[];portConstraint=eastwest;strokeColor=inherit;labelBackgroundColor=#FFFFFF;fontColor=#000000;" parent="424" vertex="1">
                    <mxGeometry y="52" width="260" height="8" as="geometry"/>
                </mxCell>
                <mxCell id="427" value="+ setStrategy(strategy: DiscountStrategy): void" style="text;strokeColor=none;fillColor=none;align=left;verticalAlign=top;spacingLeft=4;spacingRight=4;overflow=hidden;rotatable=0;points=[[0,0.5],[1,0.5]];portConstraint=eastwest;labelBackgroundColor=#FFFFFF;fontColor=#000000;" parent="424" vertex="1">
                    <mxGeometry y="60" width="260" height="26" as="geometry"/>
                </mxCell>
                <mxCell id="428" value="+ applyDiscount(amount: double): double" style="text;strokeColor=none;fillColor=none;align=left;verticalAlign=top;spacingLeft=4;spacingRight=4;overflow=hidden;rotatable=0;points=[[0,0.5],[1,0.5]];portConstraint=eastwest;labelBackgroundColor=#FFFFFF;fontColor=#000000;" parent="424" vertex="1">
                    <mxGeometry y="86" width="260" height="26" as="geometry"/>
                </mxCell>
                <mxCell id="429" value="DiscountStrategy" style="swimlane;fontStyle=1;align=center;verticalAlign=top;childLayout=stackLayout;horizontal=1;startSize=26;horizontalStack=0;resizeParent=1;resizeParentMax=0;resizeLast=0;collapsible=1;marginBottom=0;labelBackgroundColor=#FFFFFF;strokeColor=#000000;fontColor=#000000;fillColor=#FFFFFF;" parent="1" vertex="1">
                    <mxGeometry x="-176" y="727" width="250" height="52" as="geometry"/>
                </mxCell>
                <mxCell id="430" value="+ calculateDiscount(amount: double): double" style="text;strokeColor=none;fillColor=none;align=left;verticalAlign=top;spacingLeft=4;spacingRight=4;overflow=hidden;rotatable=0;points=[[0,0.5],[1,0.5]];portConstraint=eastwest;labelBackgroundColor=#FFFFFF;fontColor=#000000;" parent="429" vertex="1">
                    <mxGeometry y="26" width="250" height="26" as="geometry"/>
                </mxCell>
                <mxCell id="431" value="" style="endArrow=block;endSize=16;endFill=0;html=1;entryX=0.517;entryY=1.095;entryDx=0;entryDy=0;entryPerimeter=0;strokeColor=#000000;" parent="1" edge="1">
                    <mxGeometry width="160" relative="1" as="geometry">
                        <mxPoint x="-60" y="856" as="sourcePoint"/>
                        <mxPoint x="-60.279999999999745" y="780.4700000000003" as="targetPoint"/>
                    </mxGeometry>
                </mxCell>
                <mxCell id="432" value="" style="endArrow=none;html=1;strokeColor=#000000;" parent="1" edge="1">
                    <mxGeometry width="50" height="50" relative="1" as="geometry">
                        <mxPoint x="-196" y="857" as="sourcePoint"/>
                        <mxPoint x="84" y="856" as="targetPoint"/>
                    </mxGeometry>
                </mxCell>
                <mxCell id="433" value="" style="endArrow=none;html=1;strokeColor=#000000;entryX=0.574;entryY=-0.012;entryDx=0;entryDy=0;entryPerimeter=0;" parent="1" edge="1">
                    <mxGeometry width="50" height="50" relative="1" as="geometry">
                        <mxPoint x="-196" y="856" as="sourcePoint"/>
                        <mxPoint x="-195.64000000000033" y="885.376" as="targetPoint"/>
                    </mxGeometry>
                </mxCell>
                <mxCell id="434" value="" style="endArrow=none;html=1;strokeColor=#000000;" parent="1" edge="1">
                    <mxGeometry width="50" height="50" relative="1" as="geometry">
                        <mxPoint x="83" y="857" as="sourcePoint"/>
                        <mxPoint x="83" y="886" as="targetPoint"/>
                    </mxGeometry>
                </mxCell>
                <mxCell id="435" value="PercentageDiscount" style="swimlane;fontStyle=1;align=center;verticalAlign=top;childLayout=stackLayout;horizontal=1;startSize=26;horizontalStack=0;resizeParent=1;resizeParentMax=0;resizeLast=0;collapsible=1;marginBottom=0;labelBackgroundColor=#FFFFFF;strokeColor=#000000;fontColor=#000000;fillColor=#FFFFFF;" parent="1" vertex="1">
                    <mxGeometry x="-313" y="887" width="250" height="52" as="geometry"/>
                </mxCell>
                <mxCell id="436" value="+ calculateDiscount(amount: double): double" style="text;strokeColor=none;fillColor=none;align=left;verticalAlign=top;spacingLeft=4;spacingRight=4;overflow=hidden;rotatable=0;points=[[0,0.5],[1,0.5]];portConstraint=eastwest;labelBackgroundColor=#FFFFFF;fontColor=#000000;" parent="435" vertex="1">
                    <mxGeometry y="26" width="250" height="26" as="geometry"/>
                </mxCell>
                <mxCell id="437" value="FixedDiscount" style="swimlane;fontStyle=1;align=center;verticalAlign=top;childLayout=stackLayout;horizontal=1;startSize=26;horizontalStack=0;resizeParent=1;resizeParentMax=0;resizeLast=0;collapsible=1;marginBottom=0;labelBackgroundColor=#FFFFFF;strokeColor=#000000;fontColor=#000000;fillColor=#FFFFFF;" parent="1" vertex="1">
                    <mxGeometry x="-31" y="887" width="250" height="52" as="geometry"/>
                </mxCell>
                <mxCell id="438" value="+ calculateDiscount(amount: double): double" style="text;strokeColor=none;fillColor=none;align=left;verticalAlign=top;spacingLeft=4;spacingRight=4;overflow=hidden;rotatable=0;points=[[0,0.5],[1,0.5]];portConstraint=eastwest;labelBackgroundColor=#FFFFFF;fontColor=#000000;" parent="437" vertex="1">
                    <mxGeometry y="26" width="250" height="26" as="geometry"/>
                </mxCell>
                <mxCell id="439" value="" style="endArrow=open;html=1;endSize=12;startArrow=diamondThin;startSize=14;startFill=0;edgeStyle=orthogonalEdgeStyle;align=left;verticalAlign=bottom;exitX=0;exitY=0.5;exitDx=0;exitDy=0;entryX=0.999;entryY=0.084;entryDx=0;entryDy=0;entryPerimeter=0;strokeColor=#000000;" parent="1" source="425" target="430" edge="1">
                    <mxGeometry x="-1" y="3" relative="1" as="geometry">
                        <mxPoint x="-36" y="887" as="sourcePoint"/>
                        <mxPoint x="124" y="887" as="targetPoint"/>
                    </mxGeometry>
                </mxCell>
                <mxCell id="277" value="Product" style="swimlane;fontStyle=1;align=center;verticalAlign=top;childLayout=stackLayout;horizontal=1;startSize=26;horizontalStack=0;resizeParent=1;resizeParentMax=0;resizeLast=0;collapsible=1;marginBottom=0;labelBackgroundColor=#FFFFFF;strokeColor=#000000;fontColor=#000000;fillColor=#FFFFFF;" parent="1" vertex="1">
                    <mxGeometry x="563" y="-355.5458241758242" width="190" height="185.85714285714283" as="geometry"/>
                </mxCell>
                <mxCell id="278" value="+ name: String" style="text;strokeColor=none;fillColor=none;align=left;verticalAlign=top;spacingLeft=4;spacingRight=4;overflow=hidden;rotatable=0;points=[[0,0.5],[1,0.5]];portConstraint=eastwest;labelBackgroundColor=#FFFFFF;fontColor=#000000;" parent="277" vertex="1">
                    <mxGeometry y="26" width="190" height="26.64285714285714" as="geometry"/>
                </mxCell>
                <mxCell id="453" value="+ price: double" style="text;strokeColor=none;fillColor=none;align=left;verticalAlign=top;spacingLeft=4;spacingRight=4;overflow=hidden;rotatable=0;points=[[0,0.5],[1,0.5]];portConstraint=eastwest;labelBackgroundColor=#FFFFFF;fontColor=#000000;" parent="277" vertex="1">
                    <mxGeometry y="52.64285714285714" width="190" height="26.64285714285714" as="geometry"/>
                </mxCell>
                <mxCell id="279" value="+ type: String" style="text;strokeColor=none;fillColor=none;align=left;verticalAlign=top;spacingLeft=4;spacingRight=4;overflow=hidden;rotatable=0;points=[[0,0.5],[1,0.5]];portConstraint=eastwest;labelBackgroundColor=#FFFFFF;fontColor=#000000;" parent="277" vertex="1">
                    <mxGeometry y="79.28571428571428" width="190" height="26.64285714285714" as="geometry"/>
                </mxCell>
                <mxCell id="452" value="+ description: String" style="text;strokeColor=none;fillColor=none;align=left;verticalAlign=top;spacingLeft=4;spacingRight=4;overflow=hidden;rotatable=0;points=[[0,0.5],[1,0.5]];portConstraint=eastwest;labelBackgroundColor=#FFFFFF;fontColor=#000000;" parent="277" vertex="1">
                    <mxGeometry y="105.92857142857142" width="190" height="26.64285714285714" as="geometry"/>
                </mxCell>
                <mxCell id="280" value="+ getName(): String" style="text;strokeColor=none;fillColor=none;align=left;verticalAlign=top;spacingLeft=4;spacingRight=4;overflow=hidden;rotatable=0;points=[[0,0.5],[1,0.5]];portConstraint=eastwest;labelBackgroundColor=#FFFFFF;fontColor=#000000;" parent="277" vertex="1">
                    <mxGeometry y="132.57142857142856" width="190" height="26.64285714285714" as="geometry"/>
                </mxCell>
                <mxCell id="281" value="+ getPrice(): double" style="text;strokeColor=none;fillColor=none;align=left;verticalAlign=top;spacingLeft=4;spacingRight=4;overflow=hidden;rotatable=0;points=[[0,0.5],[1,0.5]];portConstraint=eastwest;labelBackgroundColor=#FFFFFF;fontColor=#000000;" parent="277" vertex="1">
                    <mxGeometry y="159.2142857142857" width="190" height="26.64285714285714" as="geometry"/>
                </mxCell>
                <mxCell id="282" value="" style="endArrow=none;html=1;strokeColor=#000000;" parent="277" edge="1">
                    <mxGeometry width="50" height="50" relative="1" as="geometry">
                        <mxPoint x="-1" y="133.2142857142857" as="sourcePoint"/>
                        <mxPoint x="189" y="133.2142857142857" as="targetPoint"/>
                    </mxGeometry>
                </mxCell>
            </root>
        </mxGraphModel>
    </diagram>
</mxfile>